<svg xmlns="http://www.w3.org/2000/svg" width="64" height="64" viewBox="0 0 64 64" fill="none" role="img" aria-label="Litestar MCP">
  <title>Litestar MCP</title>
  <!-- Model Context Protocol mark, single-color Litestar gold, transparent background -->
  <path fill="#edb641" fill-rule="evenodd" d="M37.28 12.67L36.71 12.45L36.15 12.39L35.58 12.50L35.13 12.73L18.66 28.87L17.75 29.94L17.24 30.73L16.40 32.71L16.06 34.40L16.06 36.26L16.40 37.95L17.13 39.76L18.09 41.17L19.56 42.64L21.03 43.60L22.44 44.22L23.45 44.50L24.92 44.72L26.10 44.72L28.25 44.39L29.26 44.05L30.79 43.26L32.25 42.13L45.91 28.76L48.79 25.82L48.96 25.37L49.01 24.69L48.90 24.24L48.45 23.56L47.83 23.17L47.32 23.06L46.59 23.11L45.91 23.45L29.71 39.36L29.04 39.93L28.08 40.49L27.18 40.83L26.33 41.00L24.52 40.94L23.39 40.61L22.72 40.27L22.04 39.82L21.19 39.03L20.57 38.18L20.24 37.50L19.84 35.98L19.84 34.68L20.18 33.33L20.63 32.42L21.03 31.86L37.73 15.44L38.12 14.65L38.12 13.86L37.73 13.07ZM34.51 5.00L33.55 5.23L32.31 5.68L30.96 6.41L29.71 7.37L7.76 28.87L7.31 29.55L7.20 30.50L7.31 30.90L7.65 31.46L8.39 31.97L8.78 32.08L9.40 32.08L10.30 31.69L32.20 10.19L33.04 9.51L34.00 9.01L34.85 8.72L35.47 8.61L36.99 8.61L38.07 8.84L38.63 9.06L39.98 9.91L41.11 11.15L41.68 12.22L41.96 13.18L41.96 15.33L41.68 16.29L41.11 17.36L40.77 17.81L23.68 34.62L23.39 35.30L23.39 36.03L23.68 36.71L24.18 37.22L24.86 37.50L25.71 37.50L26.27 37.28L43.43 20.52L44.84 19.67L45.91 19.33L46.87 19.22L48.00 19.28L49.24 19.61L49.97 19.95L50.93 20.63L51.72 21.42L52.34 22.32L52.68 23.06L52.91 23.85L53.02 24.58L53.02 25.48L52.91 26.22L52.62 27.12L51.83 28.47L31.35 48.62L30.67 49.75L30.39 50.76L30.39 52.00L30.62 52.91L31.13 53.87L35.87 58.61L36.60 58.94L37.16 59.00L37.67 58.89L38.12 58.66L38.63 58.15L38.91 57.53L38.91 56.74L38.57 56.01L34.23 51.72L34.23 51.04L52.62 33.04L54.77 30.84L55.67 29.49L56.46 27.57L56.74 26.16L56.80 24.47L56.63 23.17L56.40 22.27L55.61 20.46L54.60 18.99L53.41 17.81L51.66 16.62L49.86 15.89L48.17 15.55L45.74 15.55L45.80 13.29L45.63 12.28L45.29 11.09L44.61 9.63L44.10 8.84L43.31 7.88L42.47 7.09L40.77 5.96L38.97 5.23L37.95 5.00Z"/>
</svg>
